<svg width="69" height="48" viewBox="0 0 69 48" fill="none" xmlns="http://www.w3.org/2000/svg" class="logo"><path d="M23.3139 47.3781H16.4892V33.3978C16.4892 31.3544 16.1681 29.8299 15.5259 28.8242C14.8838 27.8185 13.7457 27.3174 12.1118 27.3174C10.2531 27.3174 8.90815 27.8682 8.07334 28.9699C7.23854 30.0715 6.8247 31.8839 6.8247 34.4035V47.3781H0V22.6229H6.48935V26.07H6.63205C7.4954 24.6343 8.61917 23.5896 9.99624 22.9321C11.3733 22.2782 12.7825 21.9513 14.2273 21.9513C16.0539 21.9513 17.5523 22.2 18.7224 22.694C19.8926 23.188 20.813 23.8738 21.4873 24.7516C22.1615 25.6294 22.6325 26.699 22.9036 27.9606C23.1747 29.2222 23.3139 30.6188 23.3139 32.1504V47.3781V47.3781ZM67.9545 28.8028C67.2588 30.1923 66.3134 31.3722 65.1433 32.3068C63.9802 33.2414 62.621 33.9593 61.0941 34.4461C59.5779 34.9294 57.9761 35.1711 56.3314 35.1711C54.4264 35.1711 52.6711 34.8939 51.105 34.3466C50.8945 34.272 50.6912 34.1938 50.4914 34.1121V47.3746H44.002V43.9274H43.8593C42.9924 45.3631 41.8722 46.4008 40.4951 47.0405C39.1181 47.6802 37.7053 48 36.264 48C34.4374 48 32.9391 47.7619 31.7689 47.2822C30.5988 46.8024 29.6783 46.1236 29.0041 45.2459C28.3298 44.3681 27.8589 43.2984 27.5878 42.0369C27.3131 40.7753 27.1775 39.3787 27.1775 37.847V22.6194H34.0022V36.5997C34.0022 38.6431 34.3233 40.1676 34.9619 41.1733C35.604 42.179 36.7421 42.6801 38.376 42.6801C40.2347 42.6801 41.5797 42.1293 42.4145 41.0276C43.2457 39.926 43.6631 38.1136 43.6631 35.594V23.6997C43.6524 23.4119 43.6488 23.1205 43.6524 22.822L43.656 22.6443H43.6631V22.6158H50.4878V22.6443H50.4949L50.4985 22.8184C50.5306 23.6926 50.6733 24.5384 50.923 25.3344C51.1728 26.1233 51.5331 26.8128 51.9969 27.3814C52.4571 27.9464 53.0422 28.4084 53.7378 28.746C54.4264 29.0836 55.2647 29.2542 56.228 29.2542C57.7156 29.2542 58.9857 28.7957 60.0024 27.886C61.0156 26.9833 61.5293 25.7324 61.5293 24.1653C61.5293 22.9321 61.2903 21.9833 60.8194 21.3507C60.3413 20.711 59.7313 20.2384 59 19.9505C58.2543 19.6556 57.4267 19.4814 56.5312 19.4353C55.6144 19.3855 54.7367 19.3606 53.9198 19.3606H53.7414V14.2006L53.934 14.2184C54.6511 14.2824 55.4395 14.2824 56.2601 14.2184C57.0699 14.158 57.8369 13.9768 58.5362 13.6818C59.2247 13.3939 59.7991 12.9675 60.245 12.4167C60.6803 11.8765 60.9014 11.1409 60.9014 10.2311C60.9014 8.85941 60.4377 7.79329 59.5279 7.06833C58.604 6.33272 57.5266 5.95958 56.3243 5.95958C54.6618 5.95958 53.3882 6.50685 52.5498 7.59073C51.6972 8.68527 51.2834 10.089 51.3155 11.7628L51.319 11.944H44.4587L44.4658 11.7592C44.53 10.025 44.8475 8.41875 45.4148 6.98305C45.9784 5.55446 46.7811 4.3 47.8086 3.26231C48.8289 2.22818 50.0704 1.41793 51.4974 0.852894C52.9244 0.287854 54.5334 0 56.2779 0C57.6336 0 59.0107 0.206118 60.3663 0.607687C61.722 1.00926 62.9635 1.62049 64.0516 2.42719C65.1433 3.24454 66.0423 4.24314 66.7165 5.4052C67.4015 6.57793 67.7511 7.94611 67.7511 9.47065C67.7511 11.1267 67.3444 12.6086 66.5453 13.8737C65.814 15.0322 64.7366 15.8638 63.3488 16.3471C65.0327 16.8091 66.3848 17.6975 67.3765 18.9839C68.4539 20.3805 68.9998 22.0792 68.9998 24.0267C69.0105 25.8035 68.6537 27.4098 67.9545 28.8028Z" fill="#010202"></path></svg>